<?xml version="1.0" encoding="iso-8859-1"?>
<!-- Generator: Adobe Illustrator 19.0.0, SVG Export Plug-In . SVG Version: 6.00 Build 0)  -->
<svg version="1.1" id="Capa_1" xmlns="http://www.w3.org/2000/svg" xmlns:xlink="http://www.w3.org/1999/xlink" x="0px" y="0px"
	 viewBox="0 0 512 512" style="enable-background:new 0 0 512 512;" xml:space="preserve">
<circle style="fill:#4A5370;" cx="256" cy="256" r="256"/>
<path style="fill:#27D1CF;" d="M467.585,43.262v356.891c-5.716,8.37-11.901,16.374-18.536,23.991
	c-4.106,4.702-8.37,9.247-12.8,13.636c-3.803,3.783-7.722,7.429-11.755,10.961c-1.975,1.724-3.981,3.427-6.008,5.089
	c-40.176,33.04-90.582,54.073-145.763,57.637c-5.528,0.355-11.097,0.533-16.718,0.533c-6.322,0-12.601-0.23-18.808-0.679
	c-54.356-3.95-104.009-24.869-143.673-57.49c-2.027-1.661-4.033-3.365-6.008-5.089c-4.033-3.532-7.952-7.178-11.755-10.961
	c-4.43-4.389-8.694-8.934-12.8-13.636c-6.635-7.617-12.821-15.621-18.536-23.991V43.262c0-8.156,6.612-14.769,14.769-14.769h393.627
	C460.972,28.493,467.585,35.105,467.585,43.262z"/>
<g>
	<path style="fill:#FF6954;" d="M449.048,28.493v395.651c-4.106,4.702-8.37,9.247-12.8,13.636
		c-3.803,3.783-7.722,7.429-11.755,10.961V28.493H449.048z"/>
	<path style="fill:#FF6954;" d="M87.513,28.493v420.247c-4.033-3.532-7.952-7.178-11.755-10.961
		c-4.43-4.389-8.694-8.934-12.8-13.636V28.493H87.513z"/>
</g>
<g>
	<path style="fill:#F9E7CD;" d="M431.546,103.423v123.601c0,24.952-16.206,46.111-38.661,53.551v191.781
		c-11.274,7.158-23.134,13.448-35.506,18.777c-0.01-0.261-0.021-0.533-0.021-0.794V280.575
		c-22.455-7.44-38.661-28.599-38.661-53.551V103.423c0-2.226,0.899-4.242,2.361-5.695c1.452-1.463,3.469-2.361,5.695-2.361
		c4.451,0,8.067,3.605,8.067,8.056v74.794c0,2.226,0.899,4.242,2.361,5.695c1.452,1.463,3.469,2.361,5.695,2.361
		c4.451,0,8.067-3.605,8.067-8.056v-74.794c0-4.451,3.605-8.056,8.056-8.056c4.451,0,8.067,3.605,8.067,8.056v74.794
		c0,2.226,0.899,4.242,2.361,5.695c1.452,1.463,3.469,2.361,5.695,2.361c4.451,0,8.056-3.605,8.056-8.056v-74.794
		c0-4.451,3.615-8.056,8.067-8.056c4.451,0,8.056,3.605,8.056,8.056v74.794c0,2.226,0.899,4.242,2.361,5.695
		c1.463,1.463,3.48,2.361,5.705,2.361c4.451,0,8.056-3.605,8.056-8.056v-74.794c0-4.451,3.615-8.056,8.067-8.056
		C427.941,95.367,431.546,98.972,431.546,103.423z"/>
	<path style="fill:#F9E7CD;" d="M215.252,205.489c0,28.379-6.823,47.48-18.035,59.768h-0.01c-8.997,9.885-20.814,15.37-34.2,17.763
		v207.318c0,1.4-0.157,2.759-0.47,4.065c-12.173-4.775-23.876-10.459-35.056-16.959V283.02
		c-30.062-5.381-52.245-26.363-52.245-77.531c0-3.678,0.115-7.314,0.345-10.888v-0.01c3.48-55.704,33.343-99.224,69.663-99.224
		C183.905,95.367,215.252,144.676,215.252,205.489z"/>
</g>
<path style="fill:#E8D4BB;" d="M90.909,192.542c0,0,17.763,70.008,92.996,63.739c0,0-45.283,28.097-75.233,6.269
	C77.848,240.085,90.909,192.542,90.909,192.542z"/>
<path style="fill:#F9E7CD;" d="M297.799,142.941v129.327c0,14.075-6.52,26.634-16.718,34.795c-2.57,2.069-5.371,3.856-8.359,5.319
	v199.084c-5.527,0.355-11.097,0.533-16.718,0.533c-6.322,0-12.601-0.23-18.808-0.679V108.397c0-7.199,5.831-13.03,13.03-13.03
	c11.776,0,22.549,4.284,30.856,11.379C291.31,115.46,297.799,128.448,297.799,142.941z"/>
<path style="fill:#E8D4BB;" d="M297.799,142.941v129.327c0,14.075-6.52,26.634-16.718,34.795V106.746
	C291.31,115.46,297.799,128.448,297.799,142.941z"/>
<g>
</g>
<g>
</g>
<g>
</g>
<g>
</g>
<g>
</g>
<g>
</g>
<g>
</g>
<g>
</g>
<g>
</g>
<g>
</g>
<g>
</g>
<g>
</g>
<g>
</g>
<g>
</g>
<g>
</g>
</svg>
