<?xml version="1.0" encoding="iso-8859-1"?>
<!-- Generator: Adobe Illustrator 19.0.0, SVG Export Plug-In . SVG Version: 6.00 Build 0)  -->
<svg version="1.1" id="Capa_1" xmlns="http://www.w3.org/2000/svg" xmlns:xlink="http://www.w3.org/1999/xlink" x="0px" y="0px"
	 viewBox="0 0 512 512" style="enable-background:new 0 0 512 512;" xml:space="preserve">
<circle style="fill:#43C970;" cx="256" cy="256" r="256"/>
<path style="fill:#FFC772;" d="M501.032,94.343c-7.774-18.641-19.79-36.916-34.952-53.258l10.083-10.083
	c3.03-3.03,3.03-7.941,0-10.971c-3.03-3.03-7.952-3.03-10.982,0l-10.073,10.073c-1.557-1.442-3.145-2.873-4.744-4.274
	c-18.401-16.102-55.798-39.528-99.516-15.59c-1.996,1.087-4.66,2.811-7.764,4.953c-14.535,10.062-38.588,29.487-47.02,37.606
	c-10.01,9.665-18.662,18.484-26.415,26.937c-81.324,43.008-147.028,108.659-190.098,189.921
	c-8.547,7.826-17.701,16.792-27.251,26.687c-8.61,8.913-27.22,32.266-37.146,46.602c2.173,6.05,4.587,12.006,7.21,17.836
	c27.366,60.949,77.887,109.244,140.361,133.695c7.92,3.103,16.039,5.82,24.325,8.129c10.877-5.068,20.919-12.131,29.863-21.076
	c32.319-32.319,50.782-91.418,45.944-147.069c-2.602-30.02-11.849-58.389-26.749-82.066c-4.786-7.596-10.846-14.19-17.847-19.508
	c2.947-1.609,5.684-3.636,8.129-6.081c2.456-2.456,4.472-5.214,6.092-8.161c5.319,7.001,11.912,13.072,19.519,17.857
	c16.656,10.491,35.328,18.108,55.463,22.632c62.328,14.064,135.367-3.521,173.673-41.827c9.195-9.195,16.342-19.456,21.4-30.521
	C515.044,159.44,514.762,127.247,501.032,94.343z M215.419,215.823c-5.329,5.329-13.134,7.304-20.365,5.172
	c-3.26-0.972-6.259-2.759-8.683-5.172c-8.004-8.014-8.014-21.044-0.01-29.048c8.014-8.014,21.055-8.014,29.069,0
	c2.414,2.414,4.2,5.413,5.162,8.662C222.734,202.678,220.748,210.494,215.419,215.823z M219.076,160.965
	c-0.575,2.811-0.961,5.663-1.181,8.516c-13.646-7.272-31.023-5.183-42.506,6.311c-11.483,11.483-13.584,28.86-6.301,42.496
	c-2.863,0.219-5.705,0.616-8.526,1.181c-13.887,2.811-29.226,10.062-46.341,21.974c33.217-50.709,76.288-93.759,127.018-126.955
	C229.191,131.698,221.877,147.068,219.076,160.965z"/>
<g>
	<path style="fill:#27D1CF;" d="M205.932,470.548c-12.445,12.455-27.157,20.449-43.207,23.928
		C100.251,470.025,49.73,421.73,22.364,360.781l-0.01-0.01c0.366-0.7,0.731-1.39,1.097-2.069
		c5.287-9.655,30.417-41.629,40.02-51.576c3.051-3.166,6.071-6.249,9.038-9.206c6.468-6.468,12.696-12.424,18.599-17.805
		c14.42-13.124,27.721-23.5,39.842-31.096c12.11-7.586,23.03-12.382,32.695-14.336c8.882-1.797,18.192-1.348,26.948,1.285
		c13.354,3.971,24.869,12.748,32.381,24.691c13.782,21.911,21.995,47.188,24.419,75.139c0.157,1.818,0.293,3.626,0.387,5.444
		C250.664,390.927,234.165,442.315,205.932,470.548z"/>
	<path style="fill:#27D1CF;" d="M440.144,37.521c-33.981-29.73-63.262-23.842-81.835-13.672
		c-9.401,5.15-41.347,30.369-51.466,40.129c-3.254,3.134-6.398,6.217-9.422,9.241c-6.437,6.437-12.325,12.585-17.585,18.363
		l-0.01,0.01c-26.707,29.281-41.596,52.973-45.539,72.444c-1.796,8.882-1.347,18.194,1.267,26.935
		c3.993,13.374,12.764,24.88,24.71,32.395c15.17,9.541,32.195,16.487,50.619,20.619c2.086,0.469,4.191,0.898,6.307,1.297
		c56.017,10.509,119.43-5.419,152.963-38.952c26.796-26.796,33.073-64.61,17.365-103.99c-0.26-0.679-0.539-1.337-0.818-2.016
		c-7.894-18.952-20.688-37.575-36.976-53.861C446.672,43.409,443.447,40.405,440.144,37.521z"/>
</g>
<g>
	<path style="fill:#13BFBE;" d="M194.521,480.286c-9.707,6.99-20.417,11.724-31.796,14.19
		C100.251,470.025,49.73,421.73,22.364,360.781c0.355-0.7,0.721-1.39,1.087-2.069c5.298-9.665,30.427-41.639,40.03-51.576
		c3.051-3.176,6.06-6.249,9.028-9.216c6.468-6.468,12.706-12.434,18.599-17.805c14.43-13.124,27.732-23.489,39.852-31.096
		c11.577-7.262,22.079-11.964,31.42-14.054c-12.079,7.596-25.339,17.93-39.696,30.992c-5.893,5.381-12.131,11.348-18.599,17.815
		c-2.968,2.957-5.977,6.029-9.038,9.206c-9.603,9.947-34.732,41.921-40.02,51.576c-10.177,18.589-16.06,47.856,13.667,81.815
		c2.905,3.333,5.904,6.562,8.944,9.592c11.013,11.013,22.883,20.323,35.328,27.658c0.606,0.355,1.212,0.711,1.808,1.045
		C142.36,480.527,170.018,485.668,194.521,480.286z"/>
	<path style="fill:#13BFBE;" d="M446.419,224.456c-35.166,20.773-84.551,29.211-129.223,20.828
		c-2.112-0.392-4.225-0.828-6.304-1.296c-18.422-4.126-35.449-11.073-50.626-20.621c-11.943-7.513-20.708-19.02-24.703-32.39
		c-2.613-8.743-3.07-18.052-1.274-26.935c3.952-19.478,18.835-43.169,45.542-72.445l0.01-0.01
		c5.259-5.781,11.149-11.933,17.583-18.367c3.027-3.016,6.173-6.107,9.418-9.243c10.125-9.755,42.069-34.971,51.476-40.12
		c6.107-3.353,13.369-6.228,21.59-7.523c-13.424,9.679-33.784,26.064-41.492,33.49c-3.244,3.136-6.391,6.228-9.418,9.243
		c-6.434,6.434-12.325,12.586-17.584,18.367l-0.01,0.01c-26.707,29.276-41.59,52.967-45.542,72.445
		c-1.796,8.884-1.34,18.193,1.274,26.935c3.996,13.369,12.76,24.878,24.703,32.39c15.177,9.548,32.205,16.495,50.626,20.621
		c2.079,0.468,4.192,0.904,6.304,1.296C381.258,237.226,416.228,234.428,446.419,224.456z"/>
</g>
<g>
	<circle style="fill:#73DDE3;" cx="420.551" cy="66.978" r="18.781"/>
	<circle style="fill:#73DDE3;" cx="388.159" cy="55.274" r="9.255"/>
	<circle style="fill:#73DDE3;" cx="192.46" cy="280.095" r="18.781"/>
	<circle style="fill:#73DDE3;" cx="160.068" cy="268.392" r="9.255"/>
</g>
<g>
</g>
<g>
</g>
<g>
</g>
<g>
</g>
<g>
</g>
<g>
</g>
<g>
</g>
<g>
</g>
<g>
</g>
<g>
</g>
<g>
</g>
<g>
</g>
<g>
</g>
<g>
</g>
<g>
</g>
</svg>
