<?xml version="1.0" encoding="iso-8859-1"?>
<!-- Generator: Adobe Illustrator 19.0.0, SVG Export Plug-In . SVG Version: 6.00 Build 0)  -->
<svg version="1.1" id="Capa_1" xmlns="http://www.w3.org/2000/svg" xmlns:xlink="http://www.w3.org/1999/xlink" x="0px" y="0px"
	 viewBox="0 0 512.001 512.001" style="enable-background:new 0 0 512.001 512.001;" xml:space="preserve">
<circle style="fill:#E8D4BB;" cx="256" cy="256.001" r="256"/>
<path id="SVGCleanerId_0" style="fill:#13BFBE;" d="M459.241,156.038c-8.331-35.437-26.314-69.057-53.941-96.684
	c21.04,21.04,34.737,46.646,41.081,73.635c11.844,50.308-1.86,105.401-41.089,144.63c-13.395,13.395-28.635,23.812-44.905,31.245
	c-42.176,19.298-91.271,18.578-132.94-2.139c-14.586-7.248-28.26-16.952-40.412-29.106c-16.652-16.652-28.701-36.17-36.156-56.961
	c-19.511-54.461-7.462-117.678,36.157-161.297c16.32-16.32,35.391-28.23,55.711-35.715c54.74-20.144,118.604-8.241,162.553,35.707
	C347.595,1.648,263.74-13.98,191.863,12.469c-26.68,9.827-51.72,25.465-73.15,46.894C61.442,116.634,45.621,199.64,71.24,271.149
	c9.788,27.299,25.609,52.927,47.473,74.792c15.957,15.957,33.911,28.698,53.062,38.216c54.713,27.202,119.176,28.148,174.554,2.809
	c21.362-9.759,41.373-23.437,58.96-41.025C456.799,294.433,474.792,222.094,459.241,156.038z"/>
<path style="fill:#37425B;" d="M280.026,433.778v77.103c-3.03,0.282-6.081,0.512-9.143,0.69c-2.351,0.136-4.712,0.24-7.074,0.313
	c-2.591,0.073-5.193,0.115-7.805,0.115c-0.961,0-1.923-0.01-2.884-0.021c-3.062-0.031-6.113-0.125-9.153-0.261v-77.939H280.026z"/>
<g>
	<path style="fill:#4A5370;" d="M280.026,463.725v47.156c-3.03,0.282-6.081,0.512-9.143,0.69c-2.351,0.136-4.712,0.24-7.074,0.313
		v-48.159H280.026z"/>
	
		<rect x="-13.294" y="193.766" transform="matrix(-0.7071 -0.7071 0.7071 -0.7071 303.9822 531.2088)" style="fill:#4A5370;" width="550.604" height="17.763"/>
	<path style="fill:#4A5370;" d="M262.005,442.743c-64.133,0-124.426-24.974-169.774-70.323
		c-45.349-45.348-70.323-105.642-70.323-169.774c0-64.133,24.974-124.426,70.323-169.774l12.561,12.561
		c-86.688,86.688-86.688,227.741,0,314.428c41.993,41.993,97.826,65.12,157.214,65.12s115.221-23.127,157.213-65.12l12.561,12.561
		C386.431,417.767,326.138,442.743,262.005,442.743z"/>
</g>
<path style="fill:#27D1CF;" d="M405.291,345.941c-17.588,17.588-37.599,31.266-58.96,41.025
	c-55.38,25.339-119.841,24.393-174.554-2.809c-19.152-9.518-37.106-22.259-53.062-38.216
	c-21.864-21.864-37.685-47.493-47.474-74.792c-25.619-71.51-9.798-154.515,47.474-211.786c21.43-21.43,46.469-37.068,73.15-46.894
	c71.876-26.45,155.732-10.821,213.437,46.885c27.627,27.627,45.61,61.248,53.941,96.684
	C474.792,222.094,456.799,294.433,405.291,345.941z"/>
<g>
	<path id="SVGCleanerId_0_1_" style="fill:#13BFBE;" d="M459.241,156.038c-8.331-35.437-26.314-69.057-53.941-96.684
		c21.04,21.04,34.737,46.646,41.081,73.635c11.844,50.308-1.86,105.401-41.089,144.63c-13.395,13.395-28.635,23.812-44.905,31.245
		c-42.176,19.298-91.271,18.578-132.94-2.139c-14.586-7.248-28.26-16.952-40.412-29.106c-16.652-16.652-28.701-36.17-36.156-56.961
		c-19.511-54.461-7.462-117.678,36.157-161.297c16.32-16.32,35.391-28.23,55.711-35.715c54.74-20.144,118.604-8.241,162.553,35.707
		C347.595,1.648,263.74-13.98,191.863,12.469c-26.68,9.827-51.72,25.465-73.15,46.894C61.442,116.634,45.621,199.64,71.24,271.149
		c9.788,27.299,25.609,52.927,47.473,74.792c15.957,15.957,33.911,28.698,53.062,38.216c54.713,27.202,119.176,28.148,174.554,2.809
		c21.362-9.759,41.373-23.437,58.96-41.025C456.799,294.433,474.792,222.094,459.241,156.038z"/>
</g>
<g>
	<path style="fill:#FFC772;" d="M171.776,384.157c-19.152-9.518-37.106-22.259-53.062-38.216
		c-21.864-21.864-37.685-47.493-47.474-74.792c34.075-9.113,88.875-25.687,104.629-66.943
		c20.271-53.091-92.109-82.167-57.155-144.843c21.43-21.43,46.469-37.068,73.15-46.894c19.567,0.898,37.289,10.165,47.714,23.776
		c0,0,53.091,49.23,28.959,96.53c-24.132,47.299-72.397,55.022-70.467,91.703s53.091,41.508,28.959,90.738
		C213.024,343.798,189.248,368.481,171.776,384.157z"/>
	<path style="fill:#FFC772;" d="M405.291,345.941c-17.588,17.588-37.599,31.266-58.96,41.025
		c-4.971-23.64-9.682-54.877-3.465-67.889c10.618-22.202,60.814-16.41,69.501-54.057c8.687-37.647-33.786-49.23-29.924-72.397
		c3.862-23.166,76.799-36.585,76.799-36.585C474.792,222.094,456.799,294.433,405.291,345.941z"/>
</g>
<g>
	<path style="fill:#EDAB49;" d="M191.87,12.467c15.36,0.705,29.583,6.573,40.035,15.654c-16.251,7.445-31.484,17.857-44.865,31.239
		c-22.452,22.452-36.539,50.097-42.269,79.062c-22.286-22.658-44.345-46.256-26.057-79.062
		C140.147,37.937,165.185,22.292,191.87,12.467z"/>
	<path style="fill:#EDAB49;" d="M227.447,306.725c0.891,0.441,1.793,0.882,2.694,1.303c-0.842,2.282-1.881,4.682-3.105,7.19
		c-14.008,28.584-37.782,53.261-55.258,68.943c-19.151-9.521-37.106-22.266-53.064-38.223
		c-21.864-21.865-37.684-47.491-47.471-74.792c24.861-6.652,60.773-17.27,84.479-38.566c7.454,16.32,17.888,31.611,31.318,45.041
		C199.187,289.768,212.862,299.476,227.447,306.725z"/>
	<path style="fill:#EDAB49;" d="M405.291,345.938c-17.584,17.593-37.596,31.269-58.962,41.025
		c-4.966-23.638-9.679-54.876-3.468-67.885c0.774-1.616,1.753-3.086,2.929-4.427c4.937-1.666,9.816-3.605,14.596-5.789
		c8.15-3.723,16.045-8.19,23.569-13.41c7.513-5.202,14.655-11.148,21.336-17.828c1.46-1.46,2.89-2.939,4.272-4.447
		c29.838-32.277,43.376-74.194,40.574-115.219c5.564-1.263,9.11-1.919,9.11-1.919C474.794,222.099,456.798,294.431,405.291,345.938z
		"/>
</g>
<g>
	<circle style="fill:#73DDE3;" cx="339.655" cy="105.608" r="35.263"/>
	<circle style="fill:#73DDE3;" cx="295.936" cy="50.145" r="17.999"/>
</g>
<g>
</g>
<g>
</g>
<g>
</g>
<g>
</g>
<g>
</g>
<g>
</g>
<g>
</g>
<g>
</g>
<g>
</g>
<g>
</g>
<g>
</g>
<g>
</g>
<g>
</g>
<g>
</g>
<g>
</g>
</svg>
