<?xml version="1.0" encoding="UTF-8" standalone="no"?>
<svg id="svg24709" xmlns:rdf="http://www.w3.org/1999/02/22-rdf-syntax-ns#" xmlns="http://www.w3.org/2000/svg" height="292.1mm" width="251.31mm" version="1.1" xmlns:cc="http://creativecommons.org/ns#" xmlns:dc="http://purl.org/dc/elements/1.1/" viewBox="0 0 890.47931 1034.9824">
<g id="layer1" transform="translate(-1619.5 -72.014)">
<path id="path25444" d="m2065.8 72.021c-3.4282-0.07833-6.8975 0.43578-10.324 1.6621-40.082 11.546-77.876 30.327-113.64 51.518-18.397 12.26-39.609 23.474-50.478 43.629-14.357 27.747-8.8767 60.392-1.7422 89.453 0.1115 0.36959 0.2065 0.73503 0.3008 1.1055v0.19922l0.1973 0.80469c0.9705 3.6715 1.9985 7.3249 3.0488 10.973-54.831 37.23-109.46 74.76-163.2 113.55-26.419 19.942-55.045 37.751-77.125 62.723-16.435 18.471-34.985 40.232-33.246 66.625 24.441 143.33 47.292 287.05 77.244 429.38 9.3684 40.825 17.164 82.362 32.826 121.34 4.7485 14.227 19.855 20.026 32.926 24.152 47.348 13.784 97.122 16.32 146.16 17.82 35.769 0.1425 72.246 0.3318 107.36-7.2871 1.183-0.2649 2.0795-0.5168 2.8047-0.7578 3.9356-0.8683 7.8726-1.7311 11.807-2.6075-0.1448-0.6923-0.2851-1.3857-0.4296-2.0781 5.5446-2.9409 10.94-6.1314 16.221-9.5137 58.238-38.527 112.31-82.899 166.83-126.45 93.455-75.95 185.87-153.28 276.2-232.9 8.7585-5.9514 14.329-15.232 16.164-25.574 6.8826-35.85 3.8605-72.71 1.6738-108.9-9.0425-111.74-27.82-222.41-47.949-332.61-5.9737-31.279-11.912-62.576-18.859-93.656-1.2388-11.514-7.3848-20.981-15.686-28.375-0.097-0.19404-0.194-0.388-0.2911-0.58203-0.078 0.0402-0.1548 0.0809-0.2324 0.12109-6.1417-5.3487-13.403-9.5887-20.717-12.699-38.332-16.312-80.673-19.72-121.88-21.59-7.4937-0.45537-13.247-0.46692-19.906-0.4414-31.012 0.018-62.097 1.228-92.811 5.7012-19.586 1.3705-36.254 12.328-53.023 21.521-5.1609-13.217-11.399-25.953-19.488-37.717-6.4579-9.8892-17.488-17.592-29.227-18.473h-0.041c-0.4878-0.03494-0.977-0.05912-1.4668-0.07031zm-3.373 42.191c1.6593 0.0515 3.0359 0.91463 3.8008 3.4004 5.6022 10.212 10.181 20.886 14.107 31.816-49.428 30.489-98.02 62.317-146.35 94.516-2.4925 0.71059-4.0562 1.7783-4.9922 3.0859-2.4966-10.204-4.6249-20.463-5.3926-30.92-1.4843-14.488 1.1569-31.696 14.99-39.578 34.789-25.703 74.211-44.723 114.69-59.641 2.8341-0.63371 6.3791-2.7766 9.1446-2.6797z" fill="#d4a881"/>
<path id="path24624" d="m2281 111.72c-75.645 48.693-151.16 97.581-226.52 146.71-1.0076 0.656-2.0237 1.303-3.0312 1.959h0.3633c-52.96 34.278-105.73 69.218-158.15 104.44-36.981 25.5-76.859 49.527-103.36 86.773-11.763 15.693-14.288 36.034-11.305 54.984 10.079 78.797 23.123 157.45 35.322 236.03 15.555 95.01 30.208 190.19 49.207 284.61 1.2605 6.5721-11.325 4.1804-16.111 6.834-3.8288-18.119-7.338-36.299-10.652-54.518-25.125-140.74-47.379-281.95-68.383-423.38-3.13-27.686-10.708-55.784-5.5957-83.674 7.067-31.764 32.847-55.015 56.326-75.568 30.849-24.494 60.525-45.143 93.041-67.37l-0.072-3.2749c-5.3037-18.834-11.705-37.35-17.1-56.158-55.445 37.637-110.69 75.572-165.02 114.79-26.419 19.942-55.045 37.751-77.125 62.723-16.435 18.471-34.985 40.232-33.246 66.625 24.441 143.33 47.292 287.05 77.244 429.38 9.3684 40.825 17.164 82.362 32.826 121.34 4.7485 14.227 19.855 20.026 32.926 24.152 47.348 13.784 97.122 16.32 146.16 17.82 35.769 0.1425 72.246 0.3318 107.36-7.2871 10.942-2.4502 0.9326-4.0739-4.6894-1.2715-21.807-105.09-40.522-210.8-58.551-316.59-13.99-85.645-28.673-171.39-36.611-257.89-0.2466-15.999-4.6226-33.207 2.4765-48.32 13.7-26.714 37.566-46.239 59.877-65.568 71.129-57.566 149.58-105.05 228.04-151.76h-0.2148c70.551-40.835 146.53-83.999 218.95-121.56 4.5993 3.9907 8.358 8.997 10.792 14.152-65.793 33.495-135.16 72.581-199.04 109.54h0.1719c-78.683 46.119-156.93 93.402-230.04 148.04-24.701 19.531-50.687 38.753-68.703 64.967-9.3801 11.957-6.1826 27.698-5.7109 41.67 5.9104 72.968 18 145.27 29.31 217.54 19.977 120.76 41.01 241.39 65.838 361.26l0.1172 0.336 0.2148 1.0547c6.2374-3.2157 12.269-6.7737 18.17-10.553 58.238-38.527 112.31-82.899 166.83-126.45 93.455-75.95 185.87-153.28 276.2-232.9 8.7585-5.9514 14.329-15.232 16.164-25.574 6.8826-35.85 3.8605-72.71 1.6738-108.9-9.0425-111.74-27.82-222.41-47.949-332.61-5.9737-31.279-11.912-62.576-18.859-93.656-2.1717-20.185-19.415-34.086-36.93-41.535-38.332-16.312-80.673-19.72-121.88-21.59 14.335-0.41579 5.1727 5.9306-0.7539 10.219zm-15.141-10.67c-32.341-0.0858-64.784 1.0449-96.822 5.7109-20.318 1.4216-37.494 13.178-54.902 22.561 7.0616 18.564 12.545 37.697 17.27 56.91l0.1074 0.40234 0.2676 1.0391c44.67-28.911 89.345-57.823 134.09-86.623h-0.01zm-183.74 47.23c0 0.0105 0.01 0.0207 0.012 0.0312l0.051-0.0312h-0.062zm0.012 0.0312c-50.051 30.827-99.235 63.044-148.15 95.635-8.5826 2.4468-6.4017 9.025-4.0371 15.66l0.2051 0.78711c4.652 16.05 9.7699 31.96 14.619 47.951l0.1074 0.33398 0.3008 1.0215c26.054-17.123 52.098-34.285 78.146-51.418h-0.3223c25.456-16.197 50.728-33.022 76.106-49.457-4.6024-20.447-10.074-40.712-16.971-60.514z" fill="#b08174"/>
<path id="path24504" d="m2142.2 512.33-80.398-35.366-61.085 138.26 83.601 35.385 57.882-138.28z" fill="#81cfdf"/>
<path id="path24506" d="m2351.1 480.48c30.89-7.0809 46.46-54.178 34.768-105.21-11.692-51.033-46.229-86.669-77.118-79.588-30.89 7.0809-46.441 54.178-34.749 105.21 11.692 51.033 46.209 86.669 77.099 79.588" fill="#fde3a7"/>
<path id="path24508" d="m2120.6 814.86c-49.798 23.346-82.984 70.115-69.092 99.712 12.946 27.629 60.796 25.217 103.17-1.0076 38.106-23.616 61.432-60.429 55.065-85.511-6.7143-26.51-44.878-33.958-89.139-13.197" fill="#f1a9a0"/>
<path id="path24510" d="m2209.4 694.41 46.75-64.249 49.374 7.023-21.301-57.168 20.915-51.187-45.206 4.399-34.691-49.914-13.583 63.516-67.182 30.871 61.702 34.942 3.2221 81.768z" fill="#fe8219"/>
<path id="path24512" d="m2345.8 713.97 130.51-68.07-24.195-104.63-142.91 52.924 36.601 119.78z" fill="#90c695"/>
</g>
</svg>
