<?xml version="1.0" encoding="iso-8859-1"?>
<!-- Generator: Adobe Illustrator 19.0.0, SVG Export Plug-In . SVG Version: 6.00 Build 0)  -->
<svg version="1.1" id="Capa_1" xmlns="http://www.w3.org/2000/svg" xmlns:xlink="http://www.w3.org/1999/xlink" x="0px" y="0px"
	 viewBox="0 0 512 512" style="enable-background:new 0 0 512 512;" xml:space="preserve">
<circle style="fill:#F48944;" cx="255.998" cy="256" r="255.998"/>
<path style="fill:#F9E7CD;" d="M512,256.001c0,20.501-2.414,40.448-6.969,59.559L133.373,480.768
	c-33.572-18.348-62.568-44-84.877-74.814L36.564,379.11c-3.469-7.795-6.928-15.59-10.397-23.385l-10.397-23.385
	c-3.396-7.628-6.781-15.255-10.167-22.883v-0.01c-0.084-0.167-0.157-0.334-0.23-0.502c0.031-0.01,0.073-0.031,0.104-0.052
	C3.65,300.2,2.26,291.339,1.341,282.343c-0.888-8.662-1.337-17.45-1.337-26.342c0-0.982,0.01-1.954,0.021-2.936
	c0.313-28.212,5.193-55.327,13.939-80.645l342.16-152.094l45.714-20.323l31.901,71.763l78.116,175.74
	C511.958,250.327,512,253.159,512,256.001z"/>
<path style="fill:#FF6954;" d="M78.171,220.569c-29.027,12.904-49.058,46.059-76.831,61.774c-0.888-8.662-1.337-17.45-1.337-26.342
	c0-0.982,0.01-1.954,0.021-2.936c23.301-17,41.973-44.429,67.751-55.881C71.244,204.979,74.702,212.774,78.171,220.569z"/>
<path style="fill:#27D1CF;" d="M98.965,267.349c-31.2,13.866-51.994,51.116-83.194,64.992c-3.396-7.628-6.781-15.255-10.167-22.883
	v-0.01c-0.084-0.167-0.157-0.334-0.23-0.502c0.031-0.01,0.073-0.031,0.104-0.052c31.138-13.897,51.921-51.074,83.09-64.94
	C92.037,251.748,95.496,259.554,98.965,267.349z"/>
<path style="fill:#FF6954;" d="M119.759,314.12c-31.197,13.868-51.999,51.124-83.197,64.992
	c-3.465-7.796-6.931-15.592-10.397-23.388c31.197-13.868,51.999-51.124,83.197-64.992
	C112.828,298.528,116.293,306.324,119.759,314.12z"/>
<rect x="156.087" y="69.911" transform="matrix(0.4062 0.9138 -0.9138 0.4062 383.6257 -133.5946)" style="fill:#27D1CF;" width="277.036" height="316.931"/>
<rect x="293.374" y="159.119" transform="matrix(0.4062 0.9138 -0.9138 0.4062 488.6912 -116.8601)" style="fill:#FFC772;" width="81.774" height="316.931"/>
<rect x="214.063" y="-19.297" transform="matrix(0.4062 0.9138 -0.9138 0.4062 278.5606 -150.3313)" style="fill:#73DDE3;" width="81.774" height="316.931"/>
<path style="fill:#FFC772;" d="M379.318,128.634C365.26,97.008,328.226,82.767,296.6,96.826
	c-31.626,14.058-45.867,51.092-31.808,82.718L379.318,128.634z"/>
<path style="fill:#F48944;" d="M237.459,280.406c0.029,1.011,0.06,2.024,0.11,3.028c0.509,15.628,1.653,31.184,3.361,46.673
	c2.567,23.067,6.448,45.944,11.639,68.548l-34.649,15.402c-4.058-16.83-7.438-33.827-10.119-50.924
	c-2.62-16.679-4.587-33.475-5.905-50.338c-0.005-0.01,0.001-0.025-0.003-0.036c-0.576-7.467-1.035-14.949-1.347-22.434
	c-0.125-2.589-0.201-5.15-0.276-7.737c-0.023-0.719-0.066-1.453-0.068-2.182l0.42-0.001H237.459z"/>
<path style="fill:#3AB760;" d="M329.965,261.23c-8.811,5.004-18.116,8.337-27.538,10.104l-57.777,10.769l-1.948,0.372l-5.135,0.959
	l-37.023,6.893l-3.534,0.669l-1.667,0.308l-42.657,7.952l-20.603-46.349c12.519-12.423,28.626-21.029,46.316-24.321
	c9.436-1.761,19.33-2.02,29.358-0.533l1.111-0.197c8.811-5.004,18.127-8.342,27.563-10.103
	C272.657,211.006,310.751,227.399,329.965,261.23z"/>
<g>
	<path style="fill:#43C970;" d="M208.872,227.856c0.028,0.147,0.051,0.31,0.08,0.459l0.005,0.01l-8.334,52.083l-0.352,2.183
		l-0.614,3.844c-0.834,1.544-1.716,3.062-2.644,4.561c-0.436,0.688-0.882,1.38-1.343,2.067
		c-8.105,12.29-19.236,22.552-32.578,29.594l-19.232-43.264c2.221-5.066,4.918-9.896,8.036-14.447
		C164.753,246.195,184.758,232.347,208.872,227.856z"/>
	<path style="fill:#43C970;" d="M208.956,228.324c0,0,0,0-0.001-0.007c-0.029-0.155-0.057-0.31-0.087-0.465
		c0.155-0.029,0.31-0.057,0.465-0.087c23.951-4.336,47.414,1.372,66.046,14.146c18.748,12.854,32.593,32.86,37.091,56.97
		c-26.934,5.024-53.287-2.676-72.885-18.86L208.956,228.324z"/>
</g>
<path style="fill:#53D37A;" d="M231.276,349.081c26.427-39.34,17.5-93.711-21.945-121.313l0,0l-0.023,0.032
	C181.762,267.167,192.998,321.233,231.276,349.081z"/>
<g>
</g>
<g>
</g>
<g>
</g>
<g>
</g>
<g>
</g>
<g>
</g>
<g>
</g>
<g>
</g>
<g>
</g>
<g>
</g>
<g>
</g>
<g>
</g>
<g>
</g>
<g>
</g>
<g>
</g>
</svg>
