<?xml version="1.0" encoding="iso-8859-1"?>
<!-- Generator: Adobe Illustrator 19.0.0, SVG Export Plug-In . SVG Version: 6.00 Build 0)  -->
<svg version="1.1" id="Capa_1" xmlns="http://www.w3.org/2000/svg" xmlns:xlink="http://www.w3.org/1999/xlink" x="0px" y="0px"
	 viewBox="0 0 511.999 511.999" style="enable-background:new 0 0 511.999 511.999;" xml:space="preserve">
<circle style="fill:#FFC772;" cx="255.999" cy="255.999" r="255.999"/>
<path style="fill:#E8D4BB;" d="M457.939,72.141l3.651-16.253c3.58-15.937-7.802-31.344-24.087-32.604L136.821,0.001L91.479,447.269
	L457.939,72.141z"/>
<path style="fill:#FF6954;" d="M477.166,99.077l-4.577,20.386l-79.203,352.579c-39.696,25.307-86.82,39.957-137.383,39.957
	c-86.726,0-163.39-43.133-209.69-109.108L129.289,33.51L136.823,0l46.54,10.459l243.199,54.638l31.378,7.043l2.539,0.575
	C472.36,75.379,479.841,87.186,477.166,99.077z"/>
<path style="fill:#EF3C21;" d="M353.9,217.014c-4.89-7.732-10.585-14.764-16.948-21.013c-15.318-15.057-34.555-25.579-56.027-30.396
	c-30.406-6.834-61.638-1.421-87.959,15.245c-26.331,16.666-44.586,42.59-51.419,72.986c-6.823,30.396-1.411,61.638,15.255,87.959
	c4.932,7.784,10.668,14.858,17.084,21.128c15.297,14.994,34.492,25.475,55.902,30.281c8.579,1.933,17.209,2.884,25.798,2.884
	c21.828,0,43.259-6.175,62.161-18.139c26.321-16.666,44.586-42.579,51.409-72.976C375.989,274.567,370.566,243.335,353.9,217.014z
	 M328.185,204.967c3.803,3.741,7.335,7.784,10.564,12.131c-6.865,3.647-14.054,6.499-21.441,8.516
	c-0.637-2.466-1.348-4.911-2.132-7.325c-3.866-12.048-9.394-23.364-16.457-33.552C309.669,189.722,319.617,196.555,328.185,204.967z
	 M307.642,240.451c2.299,14.263,2.215,29.226-0.428,44.178l-44.366-9.968l0.815-3.647l6.938-30.877
	c6.52,1.108,13.072,1.661,19.592,1.661c0.679,0,1.358-0.01,2.027-0.021C297.402,241.684,302.554,241.235,307.642,240.451z
	 M203.059,318.348c-2.299-14.263-2.215-29.226,0.428-44.168l44.377,9.968l-0.888,3.95l-6.875,30.584
	c-7.126-1.212-14.284-1.755-21.399-1.64C213.445,317.115,208.231,317.565,203.059,318.348z M206.246,261.945
	c4.002-14.639,10.324-28.202,18.495-40.103c10.209,6.886,21.525,12.142,33.625,15.548l-7.753,34.523L206.246,261.945z
	 M260.1,286.897l44.366,9.968c-4.002,14.639-10.324,28.202-18.505,40.103c-10.209-6.886-21.525-12.142-33.625-15.538L260.1,286.897z
	 M283.046,184.758c10.282,12.466,17.721,27.314,21.995,43.415c-10.418,1.515-21.086,1.432-31.681-0.293L283.046,184.758z
	 M261.124,225.112c-10.324-2.967-19.989-7.461-28.756-13.291c10.752-12.706,23.813-22.946,38.442-29.811L261.124,225.112z
	 M255.147,175.271c0.502,0,1.003,0.01,1.505,0.021c-12.904,7.429-24.492,17.272-34.293,28.985
	c-5.81-4.974-11.065-10.627-15.715-16.875C221.731,179.388,238.303,175.271,255.147,175.271z M195.88,193.964
	c5.517,7.576,11.849,14.378,18.86,20.313c-9.226,13.322-16.321,28.505-20.741,44.92l-38.651-8.683
	C161.973,227.463,176.142,207.683,195.88,193.964z M152.601,262.75l38.651,8.683c-3.03,16.718-3.114,33.489-0.47,49.476
	c-8.882,2.361-17.512,5.799-25.736,10.282C153.071,310.355,148.724,286.416,152.601,262.75z M182.642,353.958
	c-3.845-3.772-7.419-7.858-10.689-12.246c6.875-3.657,14.054-6.499,21.441-8.516c0.658,2.529,1.39,5.036,2.194,7.513
	c3.866,11.964,9.373,23.228,16.394,33.364C201.084,369.099,191.189,362.318,182.642,353.958z M227.666,374.052
	c-10.292-12.455-17.721-27.314-22.006-43.415c10.418-1.515,21.086-1.431,31.692,0.303L227.666,374.052z M249.578,333.698
	c10.324,2.967,19.989,7.461,28.766,13.291c-10.752,12.716-23.824,22.956-38.442,29.811L249.578,333.698z M254.071,383.529
	c12.894-7.44,24.471-17.283,34.273-28.996c5.81,4.974,11.086,10.627,15.736,16.875C288.542,379.663,271.426,383.769,254.071,383.529
	z M314.831,364.836c-5.517-7.565-11.849-14.367-18.871-20.302c9.237-13.322,16.332-28.515,20.752-44.92l38.651,8.683
	C348.738,331.347,334.569,351.127,314.831,364.836z M358.111,296.061l-38.651-8.683c3.03-16.729,3.103-33.499,0.46-49.486
	c8.882-2.372,17.512-5.81,25.736-10.282C357.63,248.445,361.977,272.394,358.111,296.061z"/>
<g>
</g>
<g>
</g>
<g>
</g>
<g>
</g>
<g>
</g>
<g>
</g>
<g>
</g>
<g>
</g>
<g>
</g>
<g>
</g>
<g>
</g>
<g>
</g>
<g>
</g>
<g>
</g>
<g>
</g>
</svg>
