<?xml version="1.0" encoding="iso-8859-1"?>
<!-- Generator: Adobe Illustrator 19.0.0, SVG Export Plug-In . SVG Version: 6.00 Build 0)  -->
<svg version="1.1" id="Capa_1" xmlns="http://www.w3.org/2000/svg" xmlns:xlink="http://www.w3.org/1999/xlink" x="0px" y="0px"
	 viewBox="0 0 512 512" style="enable-background:new 0 0 512 512;" xml:space="preserve">
<circle style="fill:#27D1CF;" cx="256.98" cy="256.001" r="255.013"/>
<g>
	<path style="fill:#73DDE3;" d="M111.226,175.549L111.226,175.549c0-7.72,6.258-13.978,13.978-13.978h117.787
		c7.719,0,13.978,6.258,13.978,13.978l0,0c0,7.719-6.258,13.978-13.978,13.978h-38.1c-7.719,0-13.978,6.258-13.978,13.978l0,0
		c0,7.719,6.258,13.978,13.978,13.978h3.885c7.719,0,13.978,6.258,13.978,13.978l0,0c0,7.719-6.258,13.978-13.978,13.978H95.885
		c-7.719,0-13.978-6.258-13.978-13.978l0,0c0-7.719-6.258-13.978-13.978-13.978h-3.885c-7.719,0-13.978-6.258-13.978-13.978l0,0
		c0-7.719,6.258-13.978,13.978-13.978h33.204C104.969,189.527,111.226,183.269,111.226,175.549z"/>
	<path style="fill:#73DDE3;" d="M359.997,231.441L359.997,231.441c0-7.72,6.258-13.978,13.978-13.978h117.787
		c7.719,0,13.978,6.258,13.978,13.978l0,0c0,7.719-6.258,13.978-13.978,13.978h-38.1c-7.719,0-13.977,6.258-13.977,13.978l0,0
		c0,7.719,6.258,13.978,13.977,13.978h3.885c7.719,0,13.978,6.258,13.978,13.978l0,0c0,7.719-6.258,13.978-13.978,13.978H344.656
		c-7.719,0-13.978-6.258-13.978-13.978l0,0c0-7.719-6.258-13.978-13.978-13.978h-3.885c-7.719,0-13.977-6.258-13.977-13.978l0,0
		c0-7.719,6.258-13.978,13.977-13.978h33.203C353.738,245.418,359.997,239.161,359.997,231.441z"/>
	<path style="fill:#73DDE3;" d="M249.15,371.974L249.15,371.974c0-7.72,6.258-13.978,13.978-13.978h117.787
		c7.719,0,13.978,6.258,13.978,13.978l0,0c0,7.719-6.258,13.978-13.978,13.978h-38.1c-7.719,0-13.978,6.258-13.978,13.978l0,0
		c0,7.719,6.258,13.978,13.978,13.978h3.885c7.719,0,13.977,6.258,13.977,13.977l0,0c0,7.719-6.258,13.978-13.977,13.978h-112.89
		c-7.719,0-13.978-6.258-13.978-13.978l0,0c0-7.719-6.258-13.977-13.978-13.977h-3.885c-7.719,0-13.978-6.258-13.978-13.978l0,0
		c0-7.719,6.258-13.978,13.978-13.978h33.203C242.892,385.952,249.15,379.695,249.15,371.974z"/>
</g>
<path style="fill:#E8D4BB;" d="M510.741,56.984c-2.633,13.948-9.378,27.094-19.86,37.586l-20.994,20.994l-64.877,64.877
	l4.569,33.287l9.17,66.709l21.057,153.341c-16.55,17.029-35.462,31.746-56.207,43.633L262.743,317.294
	c-19.475,15.863-39.772,30.695-60.797,44.424c-22.805,14.947-46.464,28.582-70.862,40.885c-0.135,0.062-0.26,0.135-0.396,0.198
	c-13.084,6.589-27.083-7.411-20.505-20.505c0.062-0.125,0.125-0.25,0.198-0.385c12.272-24.388,25.938-48.057,40.854-70.862
	c13.739-21.015,28.572-41.312,44.455-60.797l-0.01-0.01l-28.874-21.796L35.574,129.386L9.719,109.87
	c-11.845-8.941-13.063-26.303-2.55-36.805c2.696-2.706,5.954-4.694,9.482-5.881s7.338-1.572,11.127-1.051l51.408,7.057
	l153.382,21.078l54.77,7.515l11.939,1.645h0.021l33.225,4.569l0.01,0.01l64.898-64.898l20.994-20.994
	c20.963-20.973,52.637-26.969,79.835-15.113c1.717,0.76,3.279,1.811,4.59,3.123c1.311,1.311,2.373,2.873,3.143,4.611
	C511.917,28.318,513.374,43.046,510.741,56.984z"/>
<path style="fill:#D6C1A8;" d="M214.649,463.888l-12.703-102.164c-16.502,10.811-33.452,20.942-50.806,30.376
	c-0.016,0.008-0.036,0.006-0.052,0.015c0.016-0.008,0.031-0.017,0.047-0.025c9.428-17.346,19.551-34.297,30.343-50.791
	c13.741-21.019,28.571-41.313,44.448-60.8c15.616-19.225,32.25-37.653,49.822-55.225l87.022-87.022l85.895-85.896
	c16.607-16.607,39.923-23.813,62.416-20.207c-0.945-5.909-2.625-11.76-5.092-17.415c-0.766-1.734-1.825-3.296-3.135-4.607
	c-1.31-1.31-2.873-2.369-4.598-3.125c-27.199-11.855-58.865-5.857-79.835,15.112l-85.893,85.893l-0.01-0.01L299.3,103.43h-0.02
	l-11.946-1.644l-67.535,67.535c-17.572,17.572-34.206,36.001-49.822,55.225c-1.059,1.3-2.117,2.601-3.176,3.901l28.873,21.796
	l0.01,0.01c-15.878,19.487-30.708,39.781-44.448,60.8L49.122,298.362c-7.591-0.938-15.203,1.674-20.606,7.077
	c-10.02,10.02-9.366,25.778-0.041,35.103c1.885,1.885,4.133,3.508,6.724,4.768l75.177,36.605l0.001-0.001l-0.001,0.001
	c-0.065,0.128-0.128,0.255-0.193,0.383c-6.588,13.101,7.406,27.094,20.505,20.503c0.131-0.067,0.263-0.132,0.394-0.199
	l36.625,75.217c1.26,2.591,2.873,4.829,4.768,6.724c9.315,9.315,25.072,9.97,35.093-0.05
	C212.975,479.09,215.596,471.489,214.649,463.888z"/>
<path style="fill:#4A5370;" d="M469.364,76.481c-1.291-1.291-2.088-3.073-2.088-5.041c0.001-14.186-11.54-25.727-25.726-25.726
	c-3.937-0.001-7.128-3.191-7.129-7.129c0-3.937,3.191-7.129,7.129-7.129c22.047,0,39.984,17.936,39.984,39.984
	c0,3.937-3.191,7.129-7.129,7.129C472.436,78.569,470.654,77.772,469.364,76.481z"/>
<path style="fill:#73DDE3;" d="M248.421,35.032c0,3.862-1.561,7.359-4.091,9.888c-2.529,2.529-6.027,4.091-9.888,4.091H121.55
	c-3.404,0-6.526-1.218-8.951-3.237C143.2,24.706,178.631,10.155,216.893,4.118c-0.208,0.947-0.312,1.946-0.312,2.956v0.01
	c0,7.713,6.256,13.968,13.979,13.968h3.882C242.165,21.053,248.421,27.319,248.421,35.032z"/>
<g>
</g>
<g>
</g>
<g>
</g>
<g>
</g>
<g>
</g>
<g>
</g>
<g>
</g>
<g>
</g>
<g>
</g>
<g>
</g>
<g>
</g>
<g>
</g>
<g>
</g>
<g>
</g>
<g>
</g>
</svg>
